<svg width="278" height="449" viewBox="0 0 278 449" fill="none" xmlns="http://www.w3.org/2000/svg">
<path d="M45.5004 325.5C41.5004 325.1 31.8338 316.667 27.5004 312.5C21.0004 316 3.00045 334 1.00045 359C-0.999552 384 2.00045 406 15.0004 420.5C46.0005 458 101.5 447.5 107.5 446C126.5 442.5 143.501 428.5 154.501 417.5C165.501 406.5 175.001 387.5 188.001 361C201.001 334.5 231.001 335 241.001 338C251.001 341 261.501 353 261.001 371.5C260.501 390 254.001 401.5 243.501 411C233.001 420.5 204.001 420 195.001 417.5L201.001 440C215.001 439.5 232.501 436.5 244.501 432C256.501 427.5 271.001 413 275.001 397C279.001 381 277.501 364.5 275.001 353C272.501 341.5 259.001 322 248.501 317.5C227.001 338.5 186.001 344 165.501 346.5C149.101 348.5 124.667 347.333 114.5 346.5C112.834 349 108.4 356.6 104 367C95.0005 388 80.5005 398.5 71.5005 403C62.5005 407.5 40.0004 408 29.0004 399.5C18.0004 391 13.5004 372 18.0004 355C22.5004 338 30.0004 330.5 45.5004 325.5Z" fill="#0D2625"/>
<path d="M66.5004 211.5C64.9004 209.5 64.8338 198.667 65.0004 193.5C55.0004 192.5 30.0004 201 19.0004 212.5C8.00043 224 -2.99957 261.5 14.0004 288.5C31.0004 315.5 60.5004 329.5 86.0004 336C111.5 342.5 151.501 342.5 160.001 342C168.501 341.5 206.001 338 230.501 324.5C255.001 311 264.001 292 266.501 275C269.001 258 268.501 237 257.001 219C245.501 201 231.001 191.5 213.501 187C213.501 191.667 213.301 202 212.501 206C218.834 206.5 234.001 210.5 244.001 222.5C256.501 237.5 253.001 254 244.001 265C235.001 276 208.501 286 180.001 286C157.501 302.5 117 300.5 98.5004 286C90.3338 286.167 68.3004 284.4 45.5004 276C17.0004 265.5 19.0004 248 23.0004 234.5C27.0004 221 50.5004 211.5 66.5004 211.5Z" fill="#0D2625"/>
<path d="M131.501 97.5V114.5C125.501 120 123.1 130.1 121.5 142.5C119.5 158 119 209.5 121.5 239.5C124 269.5 129.001 272.5 131.501 276V292C123.501 292 105.5 288.5 93.0004 275C74.0004 255 68.0004 216 72.0004 167C76.0004 118 109.001 97.5 131.501 97.5Z" fill="#0D2625"/>
<path d="M147.5 97.5V114.5C153.5 120 155.9 130.1 157.5 142.5C159.5 158 160 209.5 157.5 239.5C155 269.5 150 272.5 147.5 276V292C155.5 292 173.5 288.5 186 275C205 255 211 216 207 167C203 118 170 97.5 147.5 97.5Z" fill="#0D2625"/>
<path d="M82.5 3.43323e-05V118C83.8333 116.167 88.4 111 96 105V33H100.5L131.501 92.5H138.5H140.5H147.499L178.5 33H183V105C190.6 111 195.167 116.167 196.5 118V3.05176e-05H183L140.5 80H138.5L96 3.43323e-05H82.5Z" fill="#0D2625"/>
</svg>
